<svg xmlns="http://www.w3.org/2000/svg" xmlns:xlink="http://www.w3.org/1999/xlink" version="1.1" width="256" height="256" viewBox="0 0 256 256" xml:space="preserve">

<defs>
</defs>
<g style="stroke: none; stroke-width: 0; stroke-dasharray: none; stroke-linecap: butt; stroke-linejoin: miter; stroke-miterlimit: 10; fill: none; fill-rule: nonzero; opacity: 1;" transform="translate(1.4065934065934016 1.4065934065934016) scale(2.81 2.81)" >
	<path d="M 27.8 41.316 c -3.356 0 -6.712 -1.545 -9.975 -4.637 c -4.929 -4.668 -9.52 -4.668 -14.449 0 c -0.802 0.759 -2.068 0.724 -2.828 -0.077 c -0.759 -0.802 -0.725 -2.068 0.077 -2.828 c 6.526 -6.182 13.425 -6.182 19.951 0 c 4.929 4.67 9.52 4.67 14.449 0 c 6.526 -6.181 13.425 -6.182 19.95 0 c 4.929 4.669 9.52 4.671 14.45 0 c 6.525 -6.181 13.425 -6.182 19.95 0 c 0.803 0.76 0.837 2.026 0.077 2.828 c -0.761 0.802 -2.026 0.835 -2.827 0.077 c -4.932 -4.671 -9.522 -4.669 -14.45 0 c -6.526 6.183 -13.428 6.181 -19.95 0 c -4.93 -4.668 -9.52 -4.668 -14.449 0 C 34.513 39.77 31.156 41.315 27.8 41.316 z" style="stroke: none; stroke-width: 1; stroke-dasharray: none; stroke-linecap: butt; stroke-linejoin: miter; stroke-miterlimit: 10; fill: rgb(123,226,246); fill-rule: nonzero; opacity: 1;" transform=" matrix(1 0 0 1 0 0) " stroke-linecap="round" />
	<path d="M 27.8 31.543 c -3.356 0 -6.712 -1.545 -9.975 -4.637 c -4.929 -4.669 -9.52 -4.669 -14.449 0 c -0.802 0.759 -2.068 0.725 -2.828 -0.077 c -0.759 -0.802 -0.725 -2.068 0.077 -2.828 c 6.526 -6.182 13.425 -6.182 19.951 0 c 4.929 4.671 9.52 4.67 14.449 0 c 6.526 -6.182 13.425 -6.182 19.95 0 c 4.929 4.669 9.52 4.671 14.45 0 c 6.527 -6.182 13.426 -6.181 19.951 0 c 0.802 0.76 0.836 2.026 0.076 2.828 c -0.761 0.803 -2.025 0.835 -2.828 0.077 c -4.926 -4.669 -9.518 -4.671 -14.449 0 c -6.526 6.183 -13.426 6.181 -19.95 0 c -4.93 -4.67 -9.521 -4.669 -14.449 0 C 34.513 29.998 31.156 31.543 27.8 31.543 z" style="stroke: none; stroke-width: 1; stroke-dasharray: none; stroke-linecap: butt; stroke-linejoin: miter; stroke-miterlimit: 10; fill: rgb(25,151,252); fill-rule: nonzero; opacity: 1;" transform=" matrix(1 0 0 1 0 0) " stroke-linecap="round" />
	<path d="M 27.8 51.089 c -3.356 0 -6.712 -1.545 -9.975 -4.637 c -4.929 -4.67 -9.52 -4.67 -14.449 0 c -0.802 0.759 -2.068 0.725 -2.828 -0.076 c -0.759 -0.802 -0.725 -2.068 0.077 -2.828 c 6.526 -6.182 13.425 -6.182 19.951 0 c 4.929 4.67 9.52 4.67 14.449 0 c 6.526 -6.182 13.425 -6.182 19.95 0 c 4.929 4.67 9.52 4.67 14.45 0 c 6.527 -6.182 13.426 -6.18 19.951 0 c 0.802 0.76 0.836 2.026 0.076 2.828 c -0.761 0.803 -2.025 0.835 -2.828 0.076 c -4.926 -4.669 -9.518 -4.671 -14.449 0 c -6.526 6.183 -13.426 6.182 -19.95 0 c -4.93 -4.67 -9.521 -4.669 -14.449 0 C 34.513 49.543 31.156 51.089 27.8 51.089 z" style="stroke: none; stroke-width: 1; stroke-dasharray: none; stroke-linecap: butt; stroke-linejoin: miter; stroke-miterlimit: 10; fill: rgb(25,151,252); fill-rule: nonzero; opacity: 1;" transform=" matrix(1 0 0 1 0 0) " stroke-linecap="round" />
	<path d="M 27.8 60.861 c -3.356 0 -6.712 -1.545 -9.975 -4.637 c -4.929 -4.67 -9.52 -4.669 -14.449 0 c -0.802 0.76 -2.068 0.725 -2.828 -0.076 c -0.759 -0.803 -0.725 -2.068 0.077 -2.828 c 6.526 -6.182 13.425 -6.182 19.951 0 c 4.929 4.671 9.52 4.669 14.449 0 c 6.526 -6.182 13.425 -6.182 19.95 0 c 4.929 4.669 9.52 4.671 14.45 0 c 6.527 -6.182 13.426 -6.18 19.951 0 c 0.802 0.76 0.836 2.025 0.076 2.828 c -0.761 0.803 -2.025 0.834 -2.828 0.076 c -4.926 -4.669 -9.518 -4.671 -14.449 0 c -6.526 6.183 -13.426 6.182 -19.95 0 c -4.93 -4.67 -9.521 -4.669 -14.449 0 C 34.513 59.315 31.156 60.861 27.8 60.861 z" style="stroke: none; stroke-width: 1; stroke-dasharray: none; stroke-linecap: butt; stroke-linejoin: miter; stroke-miterlimit: 10; fill: rgb(123,226,246); fill-rule: nonzero; opacity: 1;" transform=" matrix(1 0 0 1 0 0) " stroke-linecap="round" />
	<path d="M 27.8 70.634 c -3.356 0 -6.712 -1.545 -9.975 -4.636 c -4.929 -4.67 -9.521 -4.67 -14.449 0 c -0.802 0.76 -2.068 0.726 -2.828 -0.077 c -0.759 -0.802 -0.725 -2.067 0.077 -2.827 c 6.526 -6.182 13.425 -6.182 19.951 0 c 4.929 4.669 9.52 4.67 14.449 0 c 6.526 -6.184 13.426 -6.183 19.95 0 c 4.932 4.67 9.522 4.668 14.45 0 c 6.526 -6.184 13.425 -6.182 19.951 0 c 0.802 0.76 0.836 2.025 0.076 2.827 c -0.761 0.805 -2.025 0.836 -2.828 0.077 c -4.926 -4.669 -9.518 -4.671 -14.449 0 c -6.524 6.181 -13.424 6.183 -19.95 0 c -4.929 -4.669 -9.52 -4.67 -14.449 0 C 34.512 69.089 31.156 70.634 27.8 70.634 z" style="stroke: none; stroke-width: 1; stroke-dasharray: none; stroke-linecap: butt; stroke-linejoin: miter; stroke-miterlimit: 10; fill: rgb(25,151,252); fill-rule: nonzero; opacity: 1;" transform=" matrix(1 0 0 1 0 0) " stroke-linecap="round" />
</g>
</svg>